<?xml version="1.0" encoding="utf-8"?>
<!-- Generator: Adobe Illustrator 16.0.0, SVG Export Plug-In . SVG Version: 6.00 Build 0)  -->
<!DOCTYPE svg PUBLIC "-//W3C//DTD SVG 1.1//EN" "http://www.w3.org/Graphics/SVG/1.1/DTD/svg11.dtd">
<svg version="1.1" id="Layer_1" xmlns="http://www.w3.org/2000/svg" xmlns:xlink="http://www.w3.org/1999/xlink" x="0px" y="0px"
	 width="60px" height="60px" viewBox="0 0 60 60" enable-background="new 0 0 60 60" xml:space="preserve">
<polygon fill="none" stroke="#000000" stroke-width="2" stroke-miterlimit="10" points="40,14 20.5,14 13.5,31.147 30.834,44.19 
	47.5,31.143 "/>
<polygon fill="none" stroke="#000000" stroke-width="2" stroke-miterlimit="10" points="54.406,32.938 53.943,32.246 47.5,31.143 
	30.834,44.19 30.834,48.672 32.359,48.795 46.007,45.836 54.699,33.283 "/>
<polygon fill="none" stroke="#000000" stroke-width="2" stroke-miterlimit="10" points="54.975,29.576 54.949,16.9 45.763,7.087 
	40,14 47.5,31.143 54.975,32.246 "/>
<polygon fill="none" stroke="#000000" stroke-width="2" stroke-miterlimit="10" points="31.063,48.688 29.979,48.795 14.792,45.75 
	6.016,32.938 6.406,32.053 13.5,31.147 31,44.19 "/>
<polygon fill="none" stroke="#000000" stroke-width="2" stroke-miterlimit="10" points="13.5,31.147 5.833,32.048 5.863,16.9 
	15.05,7.087 20.5,14 "/>
<line fill="none" stroke="#000000" stroke-width="2" stroke-miterlimit="10" x1="15.391" y1="6.547" x2="30.5" y2="3.5"/>
<line fill="none" stroke="#000000" stroke-width="2" stroke-miterlimit="10" x1="30" y1="3.5" x2="45.547" y2="6.547"/>
<circle fill="none" stroke="#000000" stroke-width="2" stroke-miterlimit="10" cx="30.438" cy="27" r="10.147"/>
</svg>
