<?xml version="1.0" encoding="utf-8"?>
<!-- Generator: Adobe Illustrator 16.0.0, SVG Export Plug-In . SVG Version: 6.00 Build 0)  -->
<!DOCTYPE svg PUBLIC "-//W3C//DTD SVG 1.1//EN" "http://www.w3.org/Graphics/SVG/1.1/DTD/svg11.dtd">
<svg version="1.1" id="Layer_1" xmlns="http://www.w3.org/2000/svg" xmlns:xlink="http://www.w3.org/1999/xlink" x="0px" y="0px"
	 width="60px" height="60px" viewBox="0 0 60 60" enable-background="new 0 0 60 60" xml:space="preserve">
<rect x="12" y="10" fill="none" stroke="#000000" stroke-width="2" stroke-miterlimit="10" width="37" height="37"/>
<rect x="18.126" y="16.126" transform="matrix(0.709 0.7052 -0.7052 0.709 28.974 -13.2154)" fill="none" stroke="#000000" stroke-width="2" stroke-miterlimit="10" width="24.749" height="24.749"/>
<path fill="none" stroke="#000000" stroke-width="2" stroke-miterlimit="10" d="M40.229,28.5c0,5.372-4.357,9.729-9.729,9.729
	c-5.372,0-9.722-4.356-9.722-9.729c0-5.372,4.35-9.722,9.722-9.722C35.871,18.778,40.229,23.128,40.229,28.5z"/>
<path fill="none" stroke="#000000" stroke-width="2" stroke-miterlimit="10" d="M48.501,28.5c0,9.949-8.053,18.001-18.001,18.001
	c-9.949,0-17.999-8.052-17.999-18.001s8.05-17.999,17.999-17.999C40.448,10.501,48.501,18.551,48.501,28.5z"/>
</svg>
