<?xml version="1.0" encoding="utf-8"?>
<!-- Generator: Adobe Illustrator 16.0.0, SVG Export Plug-In . SVG Version: 6.00 Build 0)  -->
<!DOCTYPE svg PUBLIC "-//W3C//DTD SVG 1.1//EN" "http://www.w3.org/Graphics/SVG/1.1/DTD/svg11.dtd">
<svg version="1.1" id="Layer_1" xmlns="http://www.w3.org/2000/svg" xmlns:xlink="http://www.w3.org/1999/xlink" x="0px" y="0px"
	 width="1280px" height="800px" viewBox="0 0 1280 800" enable-background="new 0 0 1280 800" xml:space="preserve">
<path fill="#18589E" d="M510.289,308.039c0.541,4.289,2.607,7.921,4.93,11.444c3.231,8.06,6.464,16.114,9.697,24.173
	c4.108-0.661,1.794-3.332,1.667-5.319c-1.122-17.901-2.229-35.783-2.428-53.747c-0.416-37.516,6.942-73.042,24.367-106.755
	c-6.162,2.774-9.353,8.839-13.987,13.245c-4.747,4.513-9.328,9.2-14.615,14.438c-0.538-4.013,0.951-6.809,2.25-9.474
	c17.504-35.875,40.343-67.79,70.929-93.707c6.998-5.928,14.722-11.543,26.075-9.437c-13.603,16.348-23.005,34.444-30.386,53.66
	c-10.874,28.314-12.366,57.776-9.514,87.438c5.311,55.215,22.422,106.802,50.197,154.797c2.926,5.054,1.348,6.034-3.521,7.54
	c-50.516,15.622-83.389,49.223-94.681,100.613c-12.056,54.866,2.515,102.553,47.557,138.535c6.681,5.338,4.359,7.863-0.751,10.761
	c-7.532,4.269-15.404,7.932-23.063,11.986c-18.182,9.619-21.64,20.604-12.271,38.995c4.89,9.605,11.607,17.998,19.354,27.349
	c-17.746-2.586-32.168-8.922-44.728-19.55c-1.737-1.886-3.476-3.768-5.213-5.648c-15.495-22.745-13.298-47.39-7.775-72.56
	c-11.264,16.429-14.599,34.621-12.779,55.855c-10.594-10.328-15.574-21.586-17.436-34.495c-2.37-16.463,1.875-31.958,6.62-47.446
	c1.721-5.62,4.566-11.149,3.49-17.347c-1.859-10.689-9.941-15.073-19.018-18.133c-7.79-2.625-15.909-2.379-24.007-1.887
	c-23.712,1.442-23.93-4.904-27.597-23.681c-1.218-6.237-0.193-12.914-0.193-19.463c3.276,0.064,3.727,2.556,4.749,4.12
	c7.641,11.688,12.081,13.313,25.36,8.351c13.655-5.104,26.823-11.936,43.471-10.456c-4.918-7.063-11.06-10.712-16.371-15.156
	c-9.631-8.059-19.646-15.661-29.177-23.833c-19.618-16.825-28.764-38.274-28.141-64.167c0.485-20.228,4.359-39.55,13.695-60.251
	c4.604,43.42,40.227,58.396,66.549,81.563c-20.691-56.802-35.804-113.951-19.619-176.432c-10.314,13.15-16.327,27.024-23.824,40.639
	c-6.683-19.873,26.759-77.26,51.389-88.116C494.67,248.309,497.838,278.677,510.289,308.039z"/>
</svg>
