<?xml version="1.0" encoding="utf-8"?>
<!-- Generator: Adobe Illustrator 16.0.0, SVG Export Plug-In . SVG Version: 6.00 Build 0)  -->
<!DOCTYPE svg PUBLIC "-//W3C//DTD SVG 1.1//EN" "http://www.w3.org/Graphics/SVG/1.1/DTD/svg11.dtd">
<svg version="1.1" id="Layer_1" xmlns="http://www.w3.org/2000/svg" xmlns:xlink="http://www.w3.org/1999/xlink" x="0px" y="0px"
	 width="1280px" height="800px" viewBox="0 0 1280 800" enable-background="new 0 0 1280 800" xml:space="preserve">
<path fill="#18589E" d="M810.327,326.358c17.282-34.583,24.84-70.719,16.511-109.613c23.891,9.317,58.911,69.441,50.917,87.116
	c-7.116-12.376-12.146-25.602-21.205-36.414c-0.283-0.337-1.099-0.23-1.193-0.247c15.163,60.2-0.234,116.791-20.577,173.188
	c25.857-22.983,61.474-37.544,65.973-78.802c0.826,0.388,1.985,0.542,2.234,1.104c10.728,24.113,14.033,49.424,10.456,75.384
	c-3.444,24.991-20.377,41.146-39.036,55.841c-11.009,8.666-21.909,17.47-35.129,28.026c19.345-1.349,33.747,6.821,49.075,11.91
	c10.246,3.402,14.93,1.093,20.967-8.17c1.075-1.648,1.588-3.906,4.766-4.717c0.858,10.785,1.081,21.295-2.127,31.584
	c-2.346,7.521-7.761,10.77-15.629,10.873c-10.419,0.136-20.879-1.405-31.252,1.357c-18.274,4.866-24.191,14.508-18.662,32.468
	c5.649,18.354,11.659,36.577,6.812,56.125c-2.584,10.418-6.547,20.136-16.288,28.768c1.363-21.678-1.925-40.633-14.083-57.522
	c7.863,29.196,9.761,57.338-12.819,81.499c-12.503,9.629-26.395,15.999-42.743,18.356c5.785-8.393,11.66-15.947,16.499-24.118
	c12.242-20.681,8.574-32.58-12.81-43.454c-7.184-3.65-14.68-6.642-21.472-11.12c-5.414-3.571-5.903-5.835-0.25-10.147
	c35.041-26.741,51.374-63.017,51.749-106.469c0.521-60.524-35.975-111.376-93.168-131.168c-11.731-4.062-11.639-4.009-5.434-15.301
	c29.114-52.992,46.315-109.539,47.893-170.096c1.09-41.876-11.1-80.21-36.636-113.888c-1.23-1.624-2.472-3.241-4.271-5.599
	c9.05-2.461,15.539,1.852,21.666,6.125c13.61,9.495,24.722,21.683,35.05,34.538c16.9,21.037,32.369,43.008,42.594,68.231
	c-0.179,1.188-0.356,2.374-0.535,3.562c-5.14,0.84-7.461-3.214-10.038-6.242c-4.064-4.778-8.199-9.492-12.92-14.496
	c24.247,49.32,24.365,100.959,18.163,152.949"/>
</svg>
