<?xml version="1.0" encoding="utf-8"?>
<!-- Generator: Adobe Illustrator 16.0.0, SVG Export Plug-In . SVG Version: 6.00 Build 0)  -->
<!DOCTYPE svg PUBLIC "-//W3C//DTD SVG 1.1//EN" "http://www.w3.org/Graphics/SVG/1.1/DTD/svg11.dtd">
<svg version="1.1" id="Layer_1" xmlns="http://www.w3.org/2000/svg" xmlns:xlink="http://www.w3.org/1999/xlink" x="0px" y="0px"
	 width="60px" height="10px" viewBox="0 0 60 10" enable-background="new 0 0 60 10" xml:space="preserve">
<g id="XMLID_1_">
	<g>
		<path d="M35.48,2.35c2.97,0,5.909,0,8.88,0c0.22-0.65,0.319-0.7,1.6-0.7c1.46-0.01,2.92-0.01,4.37,0c1.13,0,1.35,0.11,1.47,0.8
			c0.88,0,1.78,0,2.681-0.03C55.18,2.4,55.6,2.56,55.91,2.93c1.229,1.46,2.51,2.91,3.77,4.36c0.07,0.08,0.16,0.15,0.24,0.229
			C59.48,7.77,59.03,8.03,58.58,8.29c-0.04-0.021-0.09-0.04-0.14-0.04c-2.21,0-4.41,0-6.61,0c-0.25,0.73-0.36,0.78-1.68,0.78
			c-1.431,0-2.87,0-4.311,0c-1.13,0-1.35-0.11-1.479-0.78c-0.21,0-0.44,0-0.82-0.01c0.03,0.319,0.07,0.62,0.06,0.92
			c0,0.439-0.35,0.649-1.109,0.649c-1.24,0-2.48,0-3.721,0C37.95,9.8,37.62,9.62,37.62,9.14c0-0.279,0.03-0.56,0.04-0.81
			c-4.82,0.01-9.58,0.01-14.39,0.01c0,0-0.02,0.05-0.03,0.101c-0.08,0.42-0.39,0.59-1.12,0.59c-1.22,0.01-2.44,0-3.66,0
			c-4.02,0-8.03,0-12.05,0c-1.06,0-1.32-0.141-1.42-0.771C4.81,8.25,4.62,8.25,4.43,8.23C2.12,8.14,0.34,7.1,0.29,5.76
			C0.26,5.25,0.37,4.74,0.42,4.23C0.65,3.57,1.18,2.76,3.43,2.5c0.5-0.03,1-0.06,1.54-0.09c0.01-0.04,0.04-0.08,0.05-0.12
			C5.1,1.8,5.39,1.64,6.27,1.65c3.21,0.01,6.42,0.03,9.63,0.03c2.08,0,4.17-0.01,6.26-0.03c0.73-0.01,1.02,0.18,1.1,0.73
			c0.69-0.01,1.37-0.02,2.14-0.04c0-0.45,0-0.96-0.01-1.48c0-0.62,0.28-0.78,1.37-0.78c2.35,0,4.69,0,7.03,0
			c1.51,0,1.67,0.09,1.67,0.95c0,0.43,0.01,0.86,0.01,1.29C35.47,2.33,35.47,2.34,35.48,2.35z M51.83,7.07c1.82,0,3.64,0,5.5,0
			c-0.98-1.13-1.96-2.28-2.97-3.42c-0.051-0.06-0.25-0.1-0.38-0.11c-0.73-0.02-1.45-0.02-2.141-0.03
			C51.83,4.73,51.83,5.91,51.83,7.07z M49.71,7.83c0.01-1.66,0.01-3.36,0.01-5c-1.08,0-2.21,0-3.3,0c0,1.66,0,3.36-0.01,5
			C47.52,7.83,48.66,7.83,49.71,7.83z M44.3,7.07c0-1.15,0-2.33,0-3.541c-0.18,0-0.41,0-0.77,0C43.55,3.87,43.6,4.17,43.6,4.48
			c0,0.39-0.399,0.63-0.979,0.62c-0.561-0.01-0.92-0.24-0.93-0.62c0-0.31,0.05-0.61,0.069-0.93c-0.8,0.01-1.479,0.02-2.27,0.03
			c0.01,0.31,0.05,0.61,0.04,0.92c-0.011,0.4-0.4,0.63-0.98,0.62C38,5.11,37.62,4.88,37.62,4.5c0-0.31,0.05-0.62,0.07-0.91
			c-0.83-0.01-1.511-0.01-2.12-0.01c0,1.17,0,2.35,0,3.49C38.47,7.07,41.42,7.07,44.3,7.07z M41.66,8.66
			c0.01-0.12,0.02-0.25,0.03-0.33c-0.75-0.021-1.44-0.03-2.11-0.05c-0.021,0.14-0.05,0.27-0.07,0.34
			C40.28,8.63,40.97,8.64,41.66,8.66z M33.52,1.24c-2.079,0-4.12-0.01-6.16-0.01c0,0.38,0,0.77,0,1.12c2.05,0,4.1,0,6.121,0
			C33.49,2,33.51,1.62,33.52,1.24z M33.44,7.06c0-1.14,0-2.319,0-3.47c-2,0-4.041,0-5.99,0c0,1.17,0,2.35,0,3.48
			C29.43,7.07,31.47,7.06,33.44,7.06z M25.28,3.6c-0.65,0-1.33-0.01-1.96-0.01c0,1.16-0.01,2.34-0.01,3.521c0.66,0,1.34,0,1.95,0
			C25.27,5.93,25.27,4.74,25.28,3.6z M21.3,7.83c0.01-0.09-0.03-4.96-0.02-5.05c-4.85,0-9.53,0.07-14.3,0.07
			c-0.01,0.1-0.05,4.91-0.05,4.97C11.76,7.82,16.53,7.83,21.3,7.83z M4.95,7.1c0.01-1.18,0.01-2.34,0.01-3.53
			C3.78,3.5,2.77,3.82,2.39,4.45C2.05,5.01,2.05,5.6,2.37,6.16C2.75,6.82,3.91,7.21,4.95,7.1z"/>
		<path fill="#666666" d="M57.33,7.07c-1.86,0-3.68,0-5.5,0c0-1.16,0-2.34,0.01-3.561c0.69,0.01,1.41,0.01,2.141,0.03
			c0.13,0.01,0.329,0.05,0.38,0.11C55.37,4.79,56.35,5.94,57.33,7.07z"/>
		<path fill="#666666" d="M49.72,2.83c0,1.64,0,3.34-0.01,5c-1.05,0-2.19,0-3.3,0c0.01-1.64,0.01-3.34,0.01-5
			C47.51,2.83,48.64,2.83,49.72,2.83z"/>
		<path fill="#666666" d="M44.3,3.53c0,1.21,0,2.39,0,3.541c-2.88,0-5.83,0-8.729,0c0-1.14,0-2.32,0-3.49c0.609,0,1.29,0,2.12,0.01
			c-0.021,0.29-0.07,0.6-0.07,0.91c0,0.38,0.38,0.61,0.93,0.62c0.58,0.01,0.97-0.22,0.98-0.62c0.01-0.31-0.03-0.61-0.04-0.92
			c0.79-0.01,1.47-0.02,2.27-0.03c-0.02,0.32-0.069,0.62-0.069,0.93c0.01,0.38,0.369,0.61,0.93,0.62C43.2,5.11,43.6,4.87,43.6,4.48
			c0-0.31-0.05-0.61-0.069-0.95C43.89,3.53,44.12,3.53,44.3,3.53z"/>
		<path fill="#B35959" d="M41.69,8.33c-0.011,0.08-0.021,0.21-0.03,0.33c-0.69-0.021-1.38-0.03-2.15-0.04
			c0.021-0.07,0.05-0.2,0.07-0.34C40.25,8.3,40.94,8.31,41.69,8.33z"/>
		<path fill="#B3B347" d="M27.36,1.23c2.04,0,4.081,0.01,6.16,0.01C33.51,1.62,33.49,2,33.48,2.35c-2.021,0-4.07,0-6.121,0
			C27.36,2,27.36,1.61,27.36,1.23z"/>
		<path fill="#666666" d="M33.44,3.59c0,1.15,0,2.33,0,3.47c-1.971,0-4.01,0.011-5.99,0.011c0-1.13,0-2.311,0-3.48
			C29.4,3.59,31.44,3.59,33.44,3.59z"/>
		<path fill="#666666" d="M23.32,3.59c0.63,0,1.31,0.01,1.96,0.01c-0.01,1.14-0.01,2.33-0.02,3.51c-0.61,0-1.29,0-1.95,0
			C23.31,5.93,23.32,4.75,23.32,3.59z"/>
		<path fill="#252525" d="M21.28,2.78c-0.01,0.09,0.03,4.96,0.02,5.05c-4.77,0-9.54-0.01-14.37-0.01c0-0.061,0.04-4.87,0.05-4.97
			C11.75,2.85,16.43,2.78,21.28,2.78z"/>
	</g>
	<g>
	</g>
</g>
</svg>
