<?xml version="1.0" encoding="utf-8"?>
<!-- Generator: Adobe Illustrator 16.0.0, SVG Export Plug-In . SVG Version: 6.00 Build 0)  -->
<!DOCTYPE svg PUBLIC "-//W3C//DTD SVG 1.1//EN" "http://www.w3.org/Graphics/SVG/1.1/DTD/svg11.dtd">
<svg version="1.1" id="Layer_1" xmlns="http://www.w3.org/2000/svg" xmlns:xlink="http://www.w3.org/1999/xlink" x="0px" y="0px"
	 width="1280px" height="800px" viewBox="0 0 1280 800" enable-background="new 0 0 1280 800" xml:space="preserve">
<path fill="#FEE361" stroke="#FEE361" stroke-miterlimit="10" d="M658.887,299.207c-0.563-11.014-1.154-22.026-1.673-33.042
	c-0.164-3.474-1.193-5.052-4.952-3.285c-3.74,1.759-7.664,3.126-11.504,4.667c-0.322-0.821-0.815-1.43-0.684-1.835
	c4.502-13.848,4.512-13.847-9.274-18.399c-3.297-1.09-6.598-2.169-11.995-3.944c6.993-2.6,12.034-3.223,17.194-3.823
	c9.304-1.079,10.262-2.932,7.121-11.521c-1.198-3.277-2.239-6.613-3.894-11.529c6.396,3.282,11.283,5.787,17.525,8.989
	c0.732-21.593,1.434-42.287,2.135-62.98c0.714-33.442,1.432-66.883,2.138-100.324c0.044-2.091-0.254-4.226,0.067-6.268
	c0.456-2.889-1.963-7.77,2.903-8.01c5.064-0.249,3.303,4.741,3.406,7.607c0.434,11.941,0.586,23.893,0.793,35.842
	c0.706,40.921,1.411,81.843,2.074,122.765c0.186,11.432,0.113,11.422,11.162,7.888c1.875-0.6,3.798-1.058,6.417-1.781
	c-0.271,1.821-0.254,2.974-0.624,3.983c-4.683,12.816-4.696,12.809,8.28,15.264c4.101,0.775,8.201,1.558,14.565,2.769
	c-7.932,2.94-13.837,5.765-20.061,7.27c-6.89,1.665-8.283,4.318-3.932,10.021c1.41,1.848,2.174,4.188,3.257,6.344
	c-0.808,0.294-1.377,0.732-1.841,0.637c-15.199-3.151-15.623-3.187-16.691,12.71c-1.48,22.042-2.119,44.142-3.432,66.199
	c-0.24,4.059,0.711,8.771-4.157,14.022C661.678,338.07,660.281,318.639,658.887,299.207z"/>
</svg>
