<?xml version="1.0" encoding="utf-8"?>
<!-- Generator: Adobe Illustrator 16.0.0, SVG Export Plug-In . SVG Version: 6.00 Build 0)  -->
<!DOCTYPE svg PUBLIC "-//W3C//DTD SVG 1.1//EN" "http://www.w3.org/Graphics/SVG/1.1/DTD/svg11.dtd">
<svg version="1.1" xmlns="http://www.w3.org/2000/svg" xmlns:xlink="http://www.w3.org/1999/xlink" x="0px" y="0px" width="60px"
	 height="10px" viewBox="0 0 60 10" enable-background="new 0 0 60 10" xml:space="preserve">
<g id="Layer_2">
</g>
<g id="Layer_1">
	<rect x="14.5" y="2.5" fill="#666666" stroke="#000000" stroke-miterlimit="10" width="13" height="4"/>
	<g id="XMLID_1_">
		<g>
			<path d="M60.02,1.76C60.01,3.8,59.99,5.83,59.98,7.87c-0.19,0.1-0.381,0.2-0.57,0.3c-0.87,0.01-1.75,0.021-2.68,0.04
				c-0.011,0.18,0,0.36-0.03,0.55c-0.07,0.38-0.42,0.59-1.141,0.601c-2.04,0.01-4.069,0.01-6.109,0C48.81,9.35,48.44,9.14,48.37,8.8
				c-0.04-0.18-0.04-0.37-0.04-0.51c-2.8,0-5.57,0-8.45,0c0.01,0.3,0.04,0.67,0.03,1.05c-0.01,0.51-0.4,0.73-1.37,0.73
				c-3.41,0-6.82,0-10.23,0c-0.9,0-1.32-0.221-1.32-0.69c-0.01-2.55-0.02-5.09,0-7.63c0-0.48,0.46-0.67,1.49-0.67
				c6.33,0,12.66,0,18.99,0c0.261,0,0.53,0.03,0.83,0.05c0.03-0.27,0.04-0.47,0.07-0.66C48.44,0.13,48.85,0,49.48,0
				c2.039-0.01,4.05-0.02,6.079,0c0.721,0.01,1.101,0.16,1.03,0.55c-0.02,0.17,0.021,0.17,0,0.51c1.04,0.02,1.93,0.03,2.82,0.04
				c0.16,0.09,0.32,0.17,0.47,0.25C59.93,1.49,60.02,1.63,60.02,1.76z M57.61,6.97c0-1.57,0-3.13,0-4.68
				c-0.221-0.01-0.53-0.02-0.78-0.03c0,1.59,0,3.15,0,4.75C57.07,7,57.38,6.98,57.61,6.97z M54.34,2.61c0-0.49,0-0.99-0.01-1.44
				c-1.19,0-2.44,0-3.61,0c-0.01,0.47-0.01,0.96-0.01,1.44C51.9,2.61,53.13,2.61,54.34,2.61z M54.34,3.93c-1.22,0-2.47,0-3.67,0
				c-0.01,0.46-0.01,0.97-0.01,1.43c1.229,0,2.479,0,3.609,0C54.29,4.88,54.32,4.38,54.34,3.93z M54.31,6.71
				c-1.189,0-2.439,0-3.55,0c0,0.45,0,0.95,0.01,1.41c1.15,0,2.381,0,3.521,0C54.3,7.64,54.3,7.13,54.31,6.71z M48.25,6.97
				c-0.01-1.55-0.01-3.12-0.01-4.64c-6.29,0-12.63,0-18.88,0c0,1.53,0,3.09-0.01,4.63C35.63,6.97,41.96,6.97,48.25,6.97z
				 M37.66,8.28c-2.86,0-5.63-0.011-8.34-0.011C29.3,8.45,29.28,8.66,29.26,8.79c2.83,0,5.601,0,8.33,0
				C37.61,8.63,37.64,8.43,37.66,8.28z"/>
			<path fill="#666666" d="M57.61,2.29c0,1.55,0,3.11,0,4.68C57.38,6.98,57.07,7,56.83,7.01c0-1.6,0-3.16,0-4.75
				C57.08,2.27,57.39,2.28,57.61,2.29z"/>
			<path fill="#666666" d="M54.33,1.17c0.01,0.45,0.01,0.95,0.01,1.44c-1.21,0-2.439,0-3.63,0c0-0.48,0-0.97,0.01-1.44
				C51.89,1.17,53.14,1.17,54.33,1.17z"/>
			<path fill="#666666" d="M50.67,3.93c1.2,0,2.45,0,3.67,0c-0.02,0.45-0.05,0.95-0.07,1.43c-1.13,0-2.38,0-3.609,0
				C50.66,4.9,50.66,4.39,50.67,3.93z"/>
			<path fill="#666666" d="M50.76,6.71c1.11,0,2.36,0,3.55,0c-0.01,0.42-0.01,0.93-0.02,1.41c-1.14,0-2.37,0-3.521,0
				C50.76,7.66,50.76,7.16,50.76,6.71z"/>
			<path fill="#666666" d="M48.24,2.33c0,1.52,0,3.09,0.01,4.64c-6.29,0-12.62,0-18.9-0.01c0.01-1.54,0.01-3.1,0.01-4.63
				C35.61,2.33,41.95,2.33,48.24,2.33z"/>
			<path fill="#C2C26C" d="M29.32,8.27c2.71,0,5.48,0.011,8.34,0.011c-0.021,0.149-0.05,0.35-0.07,0.51c-2.729,0-5.5,0-8.33,0
				C29.28,8.66,29.3,8.45,29.32,8.27z"/>
			<path d="M25.91,1.78c0.01,1.91,0,3.82,0,5.74c0,0.29-0.2,0.551-0.76,0.62c-0.37,0.04-0.78-0.029-1.22-0.05
				c-0.11-0.25-0.26-0.43-0.26-0.6c-0.02-1.9-0.02-3.8-0.01-5.7c0.01-0.45,0.46-0.71,1.16-0.71C25.47,1.09,25.9,1.36,25.91,1.78z"/>
			<path d="M22.61,7.36c0,0.14,0.04,0.319-0.1,0.409c-0.26,0.171-0.61,0.351-0.98,0.4c-0.47,0.061-0.9-0.1-1.08-0.36
				c-0.08-0.119-0.09-0.25-0.09-0.38c-0.01-1.86-0.01-3.72,0.01-5.59c0-0.2,0.14-0.4,0.18-0.52c0.71-0.37,1.73-0.24,1.97,0.18
				c0.08,0.13,0.09,0.27,0.09,0.41C22.61,3.73,22.61,5.54,22.61,7.36z"/>
			<path d="M19.28,1.76c0.02,1.91,0.02,3.82,0.01,5.73c0,0.43-0.44,0.689-1.11,0.689c-0.65,0.011-1.13-0.25-1.14-0.67
				c-0.01-1.92,0-3.84,0-5.76c0-0.29,0.21-0.54,0.72-0.61c0.38-0.05,0.82,0.02,1.26,0.04C19.13,1.43,19.28,1.6,19.28,1.76z"/>
			<path d="M15.96,1.77c0.01,1.91,0.01,3.82,0,5.73c0,0.43-0.46,0.69-1.12,0.68c-0.68,0-1.12-0.26-1.12-0.68
				c-0.01-0.35,0.03-0.7,0.05-1.01c-2.4,0-4.71,0-7.13,0C6.65,6.77,6.67,7.12,6.66,7.47C6.65,7.98,6.25,8.19,5.28,8.19
				c-0.97,0.01-1.95,0-2.91,0C1.74,8.78,1.53,8.84,0.53,8.72C0.38,8.63,0.22,8.55,0.06,8.47C0.04,7.52,0,6.58,0,5.64
				C0,4.02,0.04,2.42,0.06,0.8c0.16-0.08,0.32-0.16,0.47-0.24c1.01-0.13,1.37-0.02,1.8,0.53c0.96,0,1.95-0.01,2.95-0.01
				c0.97,0,1.38,0.21,1.38,0.73c0.01,0.34-0.02,0.67-0.04,0.98c2.39,0,4.7-0.01,7.08-0.01c0.02-0.34,0.01-0.74,0.05-1.15
				c0.02-0.27,0.32-0.46,0.83-0.52c0.51-0.07,0.94,0.02,1.2,0.26C15.9,1.49,15.96,1.64,15.96,1.77z M13.71,4.11
				c-2.35,0-4.68,0-7-0.01C6.7,4.46,6.69,4.82,6.69,5.15c2.35,0,4.68,0.01,6.97,0.01C13.68,4.81,13.7,4.45,13.71,4.11z M4.32,2.33
				c-0.66,0-1.35,0-1.94,0.01c0,1.53,0,3.08,0,4.601C3,6.96,3.7,6.96,4.3,6.98C4.31,5.4,4.32,3.85,4.32,2.33z"/>
			<path fill="#C2C26C" d="M6.71,4.1c2.32,0.01,4.65,0.01,7,0.01c-0.01,0.34-0.03,0.7-0.05,1.05c-2.29,0-4.62-0.01-6.97-0.01
				C6.69,4.82,6.7,4.46,6.71,4.1z"/>
			<path fill="#666666" d="M2.38,2.34c0.59-0.01,1.28-0.01,1.94-0.01c0,1.52-0.01,3.07-0.02,4.65C3.7,6.96,3,6.96,2.38,6.94
				C2.38,5.42,2.38,3.87,2.38,2.34z"/>
		</g>
		<g>
		</g>
	</g>
</g>
</svg>
