<?xml version="1.0" encoding="utf-8"?>
<!-- Generator: Adobe Illustrator 16.0.0, SVG Export Plug-In . SVG Version: 6.00 Build 0)  -->
<!DOCTYPE svg PUBLIC "-//W3C//DTD SVG 1.1//EN" "http://www.w3.org/Graphics/SVG/1.1/DTD/svg11.dtd">
<svg version="1.1" id="Layer_1" xmlns="http://www.w3.org/2000/svg" xmlns:xlink="http://www.w3.org/1999/xlink" x="0px" y="0px"
	 width="1280px" height="800px" viewBox="0 0 1280 800" enable-background="new 0 0 1280 800" xml:space="preserve">
<path fill="#83BE59" d="M666.132,408.002c0.313,0.211,0.61,0.191,0.896-0.055c8.079-0.746,15.932,0.093,23.45,3.309
	c22.159,6.275,41.984,16.636,58.266,33.232c21.04,21.445,31.924,47.425,34.417,77.142c0.162,1.925,0.591,3.941-1.312,5.375
	c-6.942,2.532-17.172,1.849-20.018,1.279c-3.584-0.486-3.727-4.088-4.044-7.035c-2.218-20.838-9.888-39.363-23.801-55.101
	c-15.53-17.565-34.895-28.269-58.248-31.176c-10.727-1.333-12.261-2.435-12.088-13.122
	C663.73,417.184,661.938,411.999,666.132,408.002z"/>
<path fill="#518040" d="M781.834,531.872c-2.26,49.374-25.749,84.942-69.709,107.204c-1.726,0.873-3.449,1.763-5.177,2.646
	c-9.604,5.243-19.584,9.004-30.826,8.144c-2.13-0.162-6.444-0.213-6.444-0.213s-3.114,0.563-4.688-0.395
	c-1.403-1.375-2.743-13-1.912-20.121c0.457-3.928,4.57-3.987,7.646-4.427c15.001-2.12,29.014-6.747,41.882-14.984
	c23.438-15.002,37.293-36.271,42.519-63.406c0.232-1.198,0.309-2.439,0.626-3.617c1.166-4.312-0.626-11.72,5.046-12.099
	C768.207,530.11,780.93,529.886,781.834,531.872z"/>
</svg>
