<?xml version="1.0" encoding="utf-8"?>
<!-- Generator: Adobe Illustrator 16.0.0, SVG Export Plug-In . SVG Version: 6.00 Build 0)  -->
<!DOCTYPE svg PUBLIC "-//W3C//DTD SVG 1.1//EN" "http://www.w3.org/Graphics/SVG/1.1/DTD/svg11.dtd">
<svg version="1.1" id="Layer_1" xmlns="http://www.w3.org/2000/svg" xmlns:xlink="http://www.w3.org/1999/xlink" x="0px" y="0px"
	 width="1280px" height="800px" viewBox="0 0 1280 800" enable-background="new 0 0 1280 800" xml:space="preserve">
<path fill-rule="evenodd" clip-rule="evenodd" fill="#E7F8FB" d="M694.405,533.719c-3.658,0.046-6.554-1.777-9.007-4.233
	c-4.226-4.229-8.169-4.332-12.784-0.357c-7.18,6.184-11.565,6.156-18.576-0.029c-4.283-3.78-7.915-3.696-12.253-0.065
	c-7.818,6.551-10.794,6.373-19.15-0.158c-0.578-0.453-1.301-0.793-1.711-1.364c-1.375-1.915-6.955-0.721-4.797-4.439
	c1.609-2.773,5.822-0.525,7.677,1.431c6.095,6.432,11.256,5.699,17.456-0.144c4.847-4.568,10.58-3.223,15.046,1.331
	c4.821,4.914,9.007,4.324,13.992,0.139c6.707-5.631,10.573-5.557,17.424,0.279c4.782,4.074,8.919,4.655,13.299-0.207
	c0.644-0.717,1.419-1.393,2.263-1.839c2.491-1.309,5.913-3.995,7.636-0.784c1.92,3.574-2.99,2.484-4.603,3.797
	C702.777,529.963,699.604,533.706,694.405,533.719z"/>
<g>
	<g id="Layer_2">
		<path fill="#5C5C5C" d="M622.77,529.191c-0.604-0.832-1.583-1.383-2.674-1.391c-1.204-0.013-2.351,0.017-3.537,0.254
			c-3.271,0.656-3.067,5.604,0,6.391c0.341,0.088,0.686,0.136,1.033,0.161c0.401,0.394,0.892,0.716,1.452,0.943
			c0.056,0.022,0.115,0.045,0.173,0.066c1.42,0.571,2.856-0.249,3.638-1.465c0.253-0.259,0.489-0.543,0.688-0.884
			C624.492,531.644,623.899,530.108,622.77,529.191z"/>
	</g>
	<g id="Layer_1_1_">
		<g id="XMLID_1_">
			<g>
				<path fill="#5C5C5C" d="M633.069,522.134c-3.623,0-6.845,1.723-6.823,3.623c0.021,1.919,3.333,3.597,6.956,3.554v0.884
					c-4.352,0-8.726,0-13.097,0c0,1.502-0.198,2.626-0.088,3.753c0.022,0.177,0.113,0.399,0.177,0.643c0,0.042,0,0.086-0.021,0.131
					c-0.177,0.817-1.039-0.131-1.635,0.641l-1.897-3.623h-0.023c0-0.461,0.023-0.927,0.023-1.414
					c-2.165-0.064-3.955-0.108-5.94-0.175c-0.09-0.619-0.132-1.171-0.201-1.767c5.145-0.485,9.385-1.79,12.413-4.041
					c1.368-0.839,2.518-1.833,3.377-3.003c2.254,0,4.529,0,6.781,0V522.134z"/>
				<path d="M639.827,517.252c1.236,0.31,2.518,0.4,3.73,0.376c1.347-0.043,2.651-0.11,3.976-0.464
					c-1.369-0.439-2.185-0.484-3.976-0.509C642.013,516.655,640.997,516.832,639.827,517.252z M636.317,518.226
					c0-1.479,0-0.994,0-2.363c4.923,0,9.736,0,14.66,0c0.134,1.213,0.091,0.729,0.268,2.229c26.012,0,52.049,0,78.438,0
					c0,5.365,0,10.401,0,15.747c-29.748,0-59.383,0-89.127,0c-0.134,1.456-0.222,2.648-0.354,4.04c-4.883,0-9.652,0-14.708,0
					c-0.154-1.502-0.312-2.714-0.441-3.929c-2.341,2.559,0.75,3.995-6.516,3.995c-6.161-0.311-4.902-1.281-5.499-3.865
					c-5.277-0.927-10.377-1.812-15.855-2.76c0-3.38,0-7.155,0-11.283c7.242,0,14.354,0.086,21.442-0.068
					c1.656-0.022,3.246-0.883,4.924-1.279c1.018-0.244,2.101-0.421,3.16-0.443C629.8,518.18,632.914,518.226,636.317,518.226z
					 M636.823,534.788c-1.193-0.421-2.363-0.841-3.819-1.369c-1.569,0.528-2.851,0.994-4.132,1.434
					c1.281,0.31,2.563,0.884,3.822,0.862C634.063,535.694,635.433,535.118,636.823,534.788z M726.307,520.632
					c-33.436,0-66.649,0-100.019,0c-0.859,1.458-2.009,2.673-3.377,3.71c-3.049,1.832-7.31,2.895-12.499,3.269
					c0.021,0.264,0.064,0.531,0.086,0.772c-0.022,0-0.065,0-0.086,0c0.11,1.171,0.177,2.074,0.287,3.114
					c1.986,0.089,3.753,0.155,5.917,0.241c-0.068,0.797-0.088,1.549,0.088,2.3c0.133,0.616-1.084,1.809,1.591,1.809
					c2.01,0,2.052-0.662,1.897-1.257c0.242-1.239-0.088-1.217-0.088-3.023c35.688,0,70.867,0,106.201,0c0-0.467,0-0.928,0-1.369
					c0-3.048,0-5.898,0-8.858C726.307,521.096,726.307,520.874,726.307,520.632z M606.768,529.509
					c0.177-1.303,0.332-2.363,0.487-3.423c5.431-0.243,8.303-0.661,10.222-1.724c0.884-0.396,1.571-0.881,2.187-1.521
					c-0.11,0-0.199,0-0.309,0c0.11-0.113,0.223-0.221,0.309-0.354c-6.359,0-12.697,0-19.125,0c0,0.11,0,0.24,0,0.354
					c0,1.964,0,3.752,0,5.697c0,0.309,0,0.641,0,0.971C602.924,529.509,604.849,529.509,606.768,529.509z"/>
				<path fill="#5C5C5C" d="M620.105,531.562c0,1.812,0.331,1.789,0.088,3.028c-0.064-0.243-0.155-0.466-0.177-0.643
					c-0.11-1.127,0.088-2.254,0.088-3.753c4.371,0,8.745,0,13.097,0c9.739,0,19.432,0,29.105,0c21.376,0,42.662,0,63.995,0
					c0,0.44,0,0.905,0,1.367C690.973,531.562,655.793,531.562,620.105,531.562z"/>
				<path fill="#5C5C5C" d="M616.706,534.038c-0.177-0.751-0.156-1.503-0.088-2.3h0.023l1.897,3.623
					c0.596-0.771,1.458,0.177,1.635-0.641c0.021-0.045,0.021-0.089,0.021-0.131c0.155,0.595,0.113,1.254-1.897,1.254
					C615.622,535.847,616.839,534.654,616.706,534.038z"/>
				<path fill="#5C5C5C" d="M626.288,520.632c33.369,0,66.583,0,100.019,0c0,0.242,0,0.464,0,0.707c-7.419,0-14.842,0-22.26,0
					c-23.676,0-47.304,0-70.978,0c-2.252,0-4.527,0-6.781,0c-0.859,1.17-2.009,2.164-3.377,3.003
					C624.279,523.305,625.429,522.09,626.288,520.632z"/>
				<path fill="#5C5C5C" d="M726.307,530.194c-21.334,0-42.623,0-63.997,0v-1.613c14.001,0,27.758,0,41.737,0
					c0-1.919,0-3.709,0-5.763v-1.479c7.418,0,14.841,0,22.26,0C726.307,524.299,726.307,527.146,726.307,530.194z"/>
				<path fill="#FFFFFF" d="M619.664,522.841c-0.616,0.641-1.303,1.126-2.187,1.521c0.751-0.396,1.348-0.905,1.878-1.521
					C619.465,522.841,619.554,522.841,619.664,522.841z"/>
				<path d="M704.047,522.818c0,2.054,0,3.844,0,5.763c-13.979,0-27.738,0-41.737,0c0-1.919,0-3.752,0-5.763
					C676.152,522.818,689.912,522.818,704.047,522.818z"/>
				<path fill="#5C5C5C" d="M704.047,521.339v1.479c-14.132,0-27.895,0-41.737,0c0,2.011,0,3.844,0,5.763v1.613
					c-9.672,0-19.368,0-29.107,0v-0.884c3.535-0.065,6.494-1.635,6.562-3.512c0.063-1.988-2.981-3.665-6.693-3.665v-0.795
					C656.743,521.339,680.371,521.339,704.047,521.339z"/>
				<path fill="#9D9D9D" d="M643.558,516.655c1.791,0.024,2.606,0.069,3.976,0.509c-1.324,0.354-2.629,0.421-3.976,0.464
					c-1.213,0.024-2.494-0.066-3.73-0.376C640.997,516.832,642.013,516.655,643.558,516.655z"/>
				<path d="M633.069,522.134c3.709,0,6.758,1.677,6.688,3.665c-0.063,1.877-3.023,3.446-6.556,3.512
					c-3.623,0.047-6.935-1.635-6.956-3.554C626.225,523.856,629.446,522.134,633.069,522.134z M636.071,525.666
					c0.112-0.597-1.565-1.281-3.112-2.408c-1.503,1.173-3.159,1.88-3.004,2.499c0.133,0.616,2.032,1.565,3.156,1.565
					C634.174,527.322,635.985,526.309,636.071,525.666z"/>
				<path fill="#432121" d="M632.959,523.258c1.547,1.127,3.225,1.812,3.112,2.408c-0.086,0.643-1.897,1.656-2.96,1.656
					c-1.124,0-3.023-0.949-3.156-1.565C629.8,525.138,631.456,524.431,632.959,523.258z"/>
				<path fill="#9D9D9D" d="M633.004,533.419c1.456,0.528,2.626,0.948,3.819,1.369c-1.391,0.327-2.76,0.906-4.129,0.927
					c-1.26,0.021-2.541-0.553-3.822-0.862C630.153,534.413,631.435,533.947,633.004,533.419z"/>
				<path fill="#5C5C5C" d="M610.413,527.61c5.188-0.374,9.45-1.437,12.499-3.269c-3.027,2.251-7.268,3.556-12.413,4.041
					C610.477,528.142,610.433,527.874,610.413,527.61z"/>
				<path fill="#BEBEBE" d="M619.664,522.487c-0.086,0.133-0.199,0.24-0.309,0.354c-6.25,0-12.499,0-18.816,0
					c0-0.113,0-0.243,0-0.354C606.966,522.487,613.304,522.487,619.664,522.487z"/>
				<path fill="#BEBEBE" d="M600.539,522.841c6.317,0,12.566,0,18.816,0c-0.531,0.616-1.127,1.126-1.878,1.521
					c-1.919,0.864-4.791,1.195-10.222,1.395c-0.155,0.859-0.31,1.72-0.487,2.781c-1.919,0-3.843,0-6.229,0
					C600.539,526.593,600.539,524.805,600.539,522.841z"/>
				<path fill="#5C5C5C" d="M616.64,530.326c0,0.485-0.023,0.951-0.023,1.412c-2.164-0.086-3.932-0.152-5.917-0.241
					c-0.11-1.04-0.177-1.943-0.287-3.114c0.021,0,0.064,0,0.086,0c0.069,0.596,0.111,1.151,0.201,1.767
					C612.686,530.216,614.475,530.26,616.64,530.326z"/>
				<path fill="#BEBEBE" d="M607.254,525.757c5.431-0.199,8.303-0.53,10.222-1.395c-1.919,1.063-4.791,1.48-10.222,1.724
					c-0.155,1.06-0.31,2.12-0.487,3.423c-1.919,0-3.843,0-6.229,0c0-0.328,0-0.662,0-0.969c2.385,0,4.31,0,6.229,0
					C606.944,527.477,607.1,526.616,607.254,525.757z"/>
			</g>
			<g>
			</g>
		</g>
	</g>
</g>
</svg>
