<?xml version="1.0" encoding="utf-8"?>
<!-- Generator: Adobe Illustrator 16.0.0, SVG Export Plug-In . SVG Version: 6.00 Build 0)  -->
<!DOCTYPE svg PUBLIC "-//W3C//DTD SVG 1.1//EN" "http://www.w3.org/Graphics/SVG/1.1/DTD/svg11.dtd">
<svg version="1.1" id="Layer_1" xmlns="http://www.w3.org/2000/svg" xmlns:xlink="http://www.w3.org/1999/xlink" x="0px" y="0px"
	 width="1280px" height="800px" viewBox="0 0 1280 800" enable-background="new 0 0 1280 800" xml:space="preserve">
<path fill="#18589E" d="M510.289,308.039c0.541,4.289,2.607,7.921,4.93,11.444c3.231,8.06,6.464,16.115,9.697,24.173
	c4.108-0.661,1.794-3.332,1.667-5.319c-1.122-17.901-2.23-35.783-2.428-53.747c-0.416-37.516,6.944-73.042,24.367-106.755
	c-6.162,2.774-9.351,8.839-13.987,13.245c-4.747,4.513-9.328,9.2-14.615,14.438c-0.538-4.013,0.951-6.809,2.25-9.474
	c17.504-35.875,40.343-67.79,70.929-93.707c6.998-5.928,14.72-11.543,26.075-9.437c-13.603,16.348-23.005,34.444-30.386,53.66
	c-10.874,28.314-12.366,57.776-9.514,87.438c5.311,55.215,22.422,106.802,50.199,154.797c2.924,5.054,1.346,6.034-3.521,7.54
	c-50.516,15.622-83.389,49.223-94.681,100.613c-12.054,54.866,2.515,102.553,47.557,138.535c6.681,5.338,4.359,7.865-0.751,10.761
	c-7.532,4.269-15.404,7.932-23.062,11.986c-18.181,9.621-21.639,20.605-12.272,38.997c4.89,9.605,11.607,17.998,19.353,27.347
	c-17.747-2.586-32.168-8.922-44.727-19.55c-1.737-1.884-3.476-3.766-5.213-5.648c-15.495-22.745-13.298-47.39-7.775-72.56
	c-11.264,16.429-14.599,34.621-12.781,55.857c-10.592-10.328-15.574-21.586-17.434-34.495c-2.37-16.463,1.875-31.958,6.62-47.448
	c1.721-5.62,4.566-11.149,3.49-17.345c-1.859-10.691-9.941-15.075-19.016-18.133c-7.79-2.625-15.911-2.379-24.007-1.887
	c-23.712,1.444-23.93-4.904-27.597-23.679c-1.218-6.239-0.193-12.915-0.193-19.463c3.276,0.064,3.725,2.554,4.749,4.12
	c7.639,11.686,12.081,13.313,25.36,8.349c13.655-5.103,26.823-11.934,43.471-10.456c-4.918-7.063-11.06-10.712-16.371-15.156
	c-9.631-8.058-19.647-15.661-29.177-23.833c-19.618-16.825-28.764-38.274-28.141-64.167c0.487-20.227,4.361-39.55,13.697-60.251
	c4.604,43.42,40.225,58.397,66.547,81.565c-20.691-56.802-35.802-113.952-19.619-176.432c-10.314,13.15-16.327,27.024-23.824,40.639
	c-6.683-19.873,26.759-77.26,51.389-88.116C494.67,248.309,497.838,278.677,510.289,308.039z"/>
<path fill="#18589E" d="M810.327,326.358c17.282-34.583,24.84-70.719,16.511-109.613c23.891,9.317,58.911,69.441,50.917,87.116
	c-7.116-12.376-12.146-25.602-21.205-36.414c-0.283-0.337-1.099-0.23-1.195-0.247c15.164,60.2-0.234,116.791-20.577,173.19
	c25.859-22.985,61.474-37.544,65.973-78.802c0.826,0.388,1.985,0.542,2.234,1.103c10.728,24.114,14.034,49.424,10.456,75.384
	c-3.444,24.991-20.377,41.146-39.036,55.841c-11.009,8.666-21.909,17.47-35.129,28.026c19.345-1.347,33.748,6.823,49.077,11.912
	c10.246,3.402,14.928,1.091,20.965-8.17c1.077-1.65,1.588-3.908,4.766-4.717c0.858,10.785,1.081,21.295-2.127,31.584
	c-2.346,7.521-7.761,10.768-15.629,10.873c-10.419,0.136-20.879-1.405-31.252,1.357c-18.274,4.867-24.191,14.508-18.662,32.468
	c5.65,18.354,11.659,36.577,6.812,56.125c-2.584,10.418-6.547,20.136-16.288,28.768c1.363-21.678-1.925-40.633-14.083-57.524
	c7.863,29.196,9.759,57.338-12.821,81.499c-12.503,9.629-26.393,15.999-42.743,18.358c5.785-8.393,11.66-15.949,16.499-24.12
	c12.242-20.679,8.574-32.58-12.81-43.454c-7.182-3.65-14.678-6.64-21.47-11.12c-5.414-3.571-5.904-5.835-0.25-10.147
	c35.041-26.741,51.374-63.017,51.749-106.469c0.521-60.524-35.975-111.376-93.168-131.168c-11.733-4.061-11.639-4.009-5.434-15.301
	c29.115-52.992,46.317-109.539,47.893-170.096c1.09-41.876-11.1-80.21-36.636-113.888c-1.23-1.624-2.472-3.241-4.27-5.599
	c9.049-2.461,15.54,1.852,21.666,6.125c13.611,9.495,24.721,21.683,35.049,34.538c16.902,21.037,32.37,43.008,42.594,68.231
	c-0.179,1.188-0.356,2.374-0.535,3.562c-5.14,0.84-7.461-3.214-10.038-6.242c-4.066-4.778-8.199-9.492-12.92-14.496
	c24.247,49.32,24.365,100.959,18.163,152.949"/>
<path fill="#FEE361" stroke="#FEE361" stroke-miterlimit="10" d="M658.887,299.207c-0.563-11.014-1.154-22.026-1.673-33.042
	c-0.164-3.474-1.193-5.052-4.952-3.285c-3.74,1.759-7.664,3.126-11.504,4.667c-0.322-0.821-0.815-1.43-0.684-1.835
	c4.502-13.848,4.512-13.847-9.274-18.399c-3.297-1.09-6.598-2.169-11.995-3.944c6.993-2.6,12.034-3.223,17.194-3.823
	c9.304-1.079,10.262-2.932,7.121-11.521c-1.198-3.277-2.239-6.613-3.894-11.529c6.396,3.282,11.283,5.787,17.525,8.989
	c0.732-21.593,1.434-42.287,2.135-62.98c0.714-33.442,1.432-66.883,2.138-100.324c0.044-2.091-0.254-4.226,0.067-6.268
	c0.456-2.889-1.963-7.77,2.903-8.01c5.064-0.249,3.303,4.741,3.406,7.607c0.434,11.941,0.586,23.893,0.793,35.842
	c0.706,40.921,1.411,81.843,2.074,122.765c0.186,11.432,0.113,11.422,11.162,7.888c1.875-0.6,3.798-1.058,6.417-1.781
	c-0.271,1.821-0.254,2.974-0.624,3.983c-4.683,12.816-4.696,12.809,8.28,15.264c4.101,0.775,8.201,1.558,14.565,2.769
	c-7.932,2.94-13.837,5.765-20.061,7.27c-6.89,1.665-8.283,4.318-3.932,10.021c1.41,1.848,2.174,4.188,3.257,6.344
	c-0.808,0.294-1.377,0.732-1.841,0.637c-15.199-3.151-15.623-3.187-16.691,12.71c-1.48,22.042-2.119,44.142-3.432,66.199
	c-0.24,4.059,0.711,8.771-4.157,14.022C661.678,338.07,660.281,318.639,658.887,299.207z"/>
<g>
	<path fill-rule="evenodd" clip-rule="evenodd" fill="#83BE59" d="M666.132,408.002c0.312,0.211,0.61,0.191,0.896-0.055
		c8.079-0.746,15.932,0.093,23.45,3.309c22.161,6.275,41.986,16.636,58.266,33.232c21.04,21.447,31.924,47.425,34.417,77.142
		c0.162,1.925,0.591,3.941-1.31,5.375c-6.944,2.532-17.172,1.848-20.018,1.279c-3.584-0.486-3.727-4.088-4.044-7.035
		c-2.218-20.838-9.888-39.363-23.801-55.101c-15.53-17.565-34.893-28.267-58.248-31.174c-10.725-1.333-12.26-2.435-12.088-13.122
		C663.73,417.184,661.938,411.999,666.132,408.002z"/>
	<path fill-rule="evenodd" clip-rule="evenodd" fill="#82BF57" d="M619.969,643.305c-12.479-6.087-24.885-12.242-35.472-21.507
		c-27.216-23.815-41.853-53.491-42.381-89.856c6.762-4.536,14.07-2.732,21.102-1.322c3.563,0.714,3.881,4.576,4.242,7.835
		c3.36,30.317,17.91,53.806,42.94,71.135c12.46,8.625,26.559,12.187,41.092,14.862c9.878,1.815,10.147,2.242,10.209,12.476
		c0.021,3.422-0.063,4.874-0.583,8.541c-0.766,2.922-1.563,5.504-5.836,5.255c-0.491-0.029-0.981-0.064-1.474-0.097
		C642.029,650.493,630.616,648.672,619.969,643.305z"/>
	<path fill-rule="evenodd" clip-rule="evenodd" fill="#518040" d="M781.834,531.872c-2.26,49.374-25.749,84.942-69.709,107.204
		c-1.726,0.873-3.449,1.763-5.177,2.646c-9.604,5.243-19.584,9.004-30.826,8.142c-2.13-0.162-6.444-0.213-6.444-0.213
		s-3.116,0.563-4.688-0.393c-1.403-1.375-2.743-13-1.912-20.121c0.457-3.928,4.57-3.989,7.647-4.427
		c15.001-2.12,29.012-6.747,41.88-14.984c23.438-15.002,37.293-36.272,42.519-63.408c0.232-1.198,0.309-2.439,0.626-3.617
		c1.166-4.31-0.626-11.72,5.046-12.097C768.207,530.11,780.93,529.886,781.834,531.872z"/>
	<path fill-rule="evenodd" clip-rule="evenodd" fill="#52803F" d="M543.411,525.784c-2.855-2.391-1.446-5.489-1.115-8.222
		c6.316-52.275,34.297-87.231,83.983-104.767c1.371-0.483,2.688-1.115,4.028-1.679c7.487-4.432,15.716-4.807,24.104-4.524
		c5.161,0.178,7.361,2.676,7.309,7.836c-0.151,14.336,1.881,17.447-15.694,19.801c-39.546,5.304-73.447,41-78.27,80.773
		c-1.479,12.195-2.215,12.874-14.528,12.776C549.847,527.75,546.307,528.291,543.411,525.784z"/>
	<path fill-rule="evenodd" clip-rule="evenodd" fill="#18589E" d="M662.865,436.984c50.731-0.008,92.143,41.343,92.236,92.098
		c0.094,51.104-41.749,93.314-92.194,93.004c-51.844-0.319-93.023-41.505-92.983-92.997
		C569.966,478.07,611.419,436.99,662.865,436.984z"/>
	<path fill-rule="evenodd" clip-rule="evenodd" fill="#E4F6FA" d="M694.369,502.193c-4.178,0.317-6.839-1.905-9.344-4.289
		c-4.04-3.85-7.725-4.141-12.186-0.233c-7.437,6.512-11.253,6.505-18.548,0.233c-4.572-3.934-8.354-3.808-12.911,0.104
		c-7.141,6.129-11.066,5.848-18.623-0.308c-0.945-0.769-1.981-1.423-2.923-2.192c-1.465-1.196-5.587-0.313-4.114-3.626
		c1.415-3.189,4.32-0.733,6.362,0.11c1.52,0.63,2.787,1.959,4.047,3.105c4.108,3.742,7.947,3.841,12.327,0.089
		c7.686-6.578,10.646-6.58,18.484-0.126c4.598,3.782,8.393,3.705,12.955-0.242c7.091-6.137,10.867-6.161,17.995,0.049
		c4.615,4.02,8.503,4.155,12.845,0.075c1.241-1.166,2.566-2.379,4.078-3.1c2.075-0.995,4.96-2.966,6.299,0.253
		c1.11,2.664-2.277,2.451-3.813,3.213C702.826,497.535,700.104,503.135,694.369,502.193z"/>
	<path fill-rule="evenodd" clip-rule="evenodd" fill="#E7F8FB" d="M694.405,533.719c-3.658,0.046-6.554-1.777-9.007-4.233
		c-4.226-4.229-8.169-4.332-12.784-0.357c-7.18,6.184-11.565,6.156-18.576-0.029c-4.283-3.78-7.915-3.696-12.253-0.065
		c-7.818,6.551-10.794,6.373-19.15-0.158c-0.578-0.453-1.301-0.793-1.711-1.364c-1.375-1.915-6.955-0.721-4.797-4.439
		c1.609-2.773,5.822-0.525,7.677,1.431c6.095,6.432,11.256,5.699,17.456-0.144c4.847-4.568,10.58-3.223,15.046,1.331
		c4.821,4.914,9.007,4.324,13.992,0.139c6.707-5.631,10.573-5.557,17.424,0.279c4.782,4.074,8.919,4.655,13.299-0.207
		c0.644-0.717,1.419-1.393,2.263-1.839c2.491-1.309,5.913-3.995,7.636-0.784c1.92,3.574-2.99,2.484-4.603,3.797
		C702.777,529.963,699.604,533.706,694.405,533.719z"/>
	<path fill-rule="evenodd" clip-rule="evenodd" fill="#E5F8FB" d="M694.185,564.662c-3.557-0.254-6.52-1.821-9.037-4.333
		c-3.946-3.931-7.81-4.104-12.262-0.433c-8.056,6.641-10.951,6.641-19.143,0.018c-4.095-3.309-7.512-3.59-11.692-0.129
		c-8.058,6.666-11.341,6.551-19.194,0.246c-0.95-0.763-2.021-1.383-2.918-2.197c-1.417-1.28-5.665-0.398-4.14-3.583
		c1.187-2.477,4.42-1.028,6.547,0.126c1.472,0.8,2.716,2.064,3.968,3.224c4.143,3.842,7.957,3.669,12.262-0.108
		c7.166-6.278,11.299-6.334,18.545-0.084c4.67,4.026,8.319,3.61,12.803-0.317c6.503-5.692,11.348-5.826,17.513-0.304
		c4.991,4.471,9.234,4.896,13.87-0.068c0.823-0.877,1.834-1.726,2.931-2.17c2.297-0.932,5.397-3.582,6.889-0.025
		c1.35,3.215-2.731,2.344-4.347,3.341C702.71,560.367,699.789,564.999,694.185,564.662z"/>
	<path fill-rule="evenodd" clip-rule="evenodd" fill="#E6F4F7" d="M651.888,587.717c6.005-3.385,9.204-5.944,11.18-10.591
		c3.233,3.763,5.822,7.41,10.62,9.739c-4.391,2.607-7.729,5.265-9.725,10.002C660.753,592.957,658.878,588.783,651.888,587.717z"/>
	<path fill-rule="evenodd" clip-rule="evenodd" fill="#E7F5F7" d="M663.461,482.039c-2.292-4.585-5.531-7.353-9.797-9.773
		c3.744-3.042,7.985-4.835,8.992-10.316c3.797,3.699,5.234,8.354,11.248,8.992C669.619,474.877,666.009,477.52,663.461,482.039z"/>
</g>
</svg>
