<?xml version="1.0" encoding="utf-8"?>
<!-- Generator: Adobe Illustrator 16.0.0, SVG Export Plug-In . SVG Version: 6.00 Build 0)  -->
<!DOCTYPE svg PUBLIC "-//W3C//DTD SVG 1.1//EN" "http://www.w3.org/Graphics/SVG/1.1/DTD/svg11.dtd">
<svg version="1.1" id="Layer_1" xmlns="http://www.w3.org/2000/svg" xmlns:xlink="http://www.w3.org/1999/xlink" x="0px" y="0px"
	 width="1280px" height="800px" viewBox="0 0 1280 800" enable-background="new 0 0 1280 800" xml:space="preserve">
<path fill="#82BF57" d="M619.969,643.305c-12.479-6.087-24.885-12.242-35.472-21.507c-27.216-23.813-41.854-53.491-42.381-89.854
	c6.762-4.536,14.069-2.732,21.102-1.322c3.563,0.714,3.881,4.576,4.242,7.835c3.36,30.315,17.91,53.806,42.94,71.135
	c12.46,8.625,26.559,12.188,41.092,14.862c9.878,1.813,10.146,2.242,10.209,12.476c0.021,3.422-0.063,4.874-0.583,8.541
	c-0.768,2.922-1.563,5.504-5.836,5.255c-0.491-0.027-0.981-0.063-1.476-0.097C642.029,650.493,630.616,648.672,619.969,643.305z"/>
<path fill="#52803F" d="M543.411,525.784c-2.855-2.393-1.446-5.489-1.115-8.222c6.316-52.275,34.297-87.231,83.983-104.769
	c1.371-0.481,2.688-1.115,4.026-1.679c7.487-4.434,15.718-4.809,24.104-4.524c5.161,0.179,7.361,2.676,7.309,7.836
	c-0.149,14.336,1.883,17.447-15.692,19.803c-39.546,5.304-73.447,41-78.271,80.771c-1.479,12.195-2.215,12.874-14.526,12.776
	C549.847,527.75,546.307,528.291,543.411,525.784z"/>
</svg>
