<?xml version="1.0" encoding="utf-8"?>
<!-- Generator: Adobe Illustrator 16.0.0, SVG Export Plug-In . SVG Version: 6.00 Build 0)  -->
<!DOCTYPE svg PUBLIC "-//W3C//DTD SVG 1.1//EN" "http://www.w3.org/Graphics/SVG/1.1/DTD/svg11.dtd">
<svg version="1.1" id="Layer_1" xmlns="http://www.w3.org/2000/svg" xmlns:xlink="http://www.w3.org/1999/xlink" x="0px" y="0px"
	 width="1280px" height="800px" viewBox="0 0 1280 800" enable-background="new 0 0 1280 800" xml:space="preserve">
<g id="XMLID_1_">
	<g>
		<path fill="#18589E" d="M755.1,529.08c0.102,51.11-41.75,93.32-92.188,93.01c-51.851-0.32-93.03-41.51-92.99-93
			c0.05-51.02,41.5-92.1,92.95-92.108C713.6,436.98,755.01,478.33,755.1,529.08z M706.78,557.86c1.608-0.99,5.688-0.12,4.34-3.342
			c-1.49-3.55-4.59-0.898-6.88,0.03c-1.102,0.44-2.11,1.29-2.932,2.17c-4.64,4.96-8.88,4.54-13.868,0.07
			c-6.172-5.53-11.012-5.39-17.521,0.3c-4.479,3.93-8.13,4.34-12.8,0.32c-7.25-6.25-11.38-6.2-18.54,0.08
			c-4.31,3.778-8.12,3.95-12.271,0.108c-1.25-1.158-2.489-2.42-3.96-3.22c-2.13-1.16-5.359-2.61-6.55-0.13
			c-1.53,3.19,2.72,2.3,4.141,3.58c0.899,0.82,1.97,1.439,2.92,2.2c7.85,6.31,11.13,6.42,19.189-0.24
			c4.182-3.47,7.602-3.18,11.69,0.12c8.188,6.63,11.09,6.63,19.148-0.01c4.45-3.682,8.312-3.5,12.262,0.43
			c2.52,2.51,5.479,4.08,9.028,4.33C699.79,565,702.71,560.37,706.78,557.86z M707.3,495.31c1.54-0.76,4.92-0.55,3.812-3.21
			c-1.342-3.22-4.222-1.25-6.302-0.26c-1.51,0.72-2.829,1.94-4.068,3.102c-4.352,4.078-8.23,3.948-12.852-0.07
			c-7.13-6.21-10.898-6.19-17.988-0.05c-4.57,3.948-8.36,4.02-12.96,0.238c-7.842-6.448-10.802-6.448-18.48,0.132
			c-4.38,3.75-8.22,3.648-12.33-0.092c-1.26-1.148-2.53-2.479-4.05-3.108c-2.04-0.84-4.94-3.3-6.36-0.11
			c-1.47,3.312,2.65,2.43,4.11,3.63c0.95,0.771,1.979,1.42,2.93,2.19c7.55,6.16,11.48,6.438,18.62,0.31
			c4.561-3.91,8.34-4.04,12.91-0.108c7.3,6.278,11.109,6.278,18.55-0.23c4.46-3.91,8.15-3.62,12.19,0.23
			c2.5,2.39,5.159,4.608,9.34,4.29C700.1,503.13,702.83,497.54,707.3,495.31z M706.32,527.07c1.608-1.312,6.52-0.222,4.6-3.79
			c-1.72-3.21-5.15-0.53-7.64,0.778c-0.841,0.45-1.62,1.12-2.262,1.842c-4.38,4.858-8.52,4.278-13.3,0.21
			c-6.85-5.841-10.72-5.91-17.42-0.28c-4.99,4.18-9.17,4.77-13.99-0.14c-4.47-4.552-10.198-5.9-15.05-1.33
			c-6.2,5.84-11.359,6.568-17.46,0.14c-1.85-1.95-6.06-4.2-7.67-1.43c-2.16,3.72,3.42,2.528,4.79,4.438
			c0.41,0.57,1.14,0.91,1.72,1.37c8.351,6.53,11.33,6.7,19.15,0.15c4.33-3.63,7.96-3.71,12.25,0.068
			c7.01,6.182,11.39,6.21,18.57,0.03c4.619-3.979,8.56-3.87,12.79,0.36c2.448,2.45,5.35,4.27,9.01,4.229
			C699.6,533.71,702.78,529.96,706.32,527.07z M663.46,482.04c2.55-4.521,6.16-7.16,10.44-11.1c-6.012-0.642-7.45-5.29-11.24-8.99
			c-1.01,5.479-5.25,7.27-9,10.318C657.93,474.69,661.17,477.45,663.46,482.04z M663.96,596.87c2-4.74,5.34-7.4,9.73-10
			c-4.802-2.33-7.392-5.98-10.62-9.74c-1.98,4.64-5.182,7.2-11.182,10.59C658.88,588.78,660.75,592.96,663.96,596.87z"/>
		<path fill="#18589E" d="M711.12,554.52c1.35,3.222-2.73,2.352-4.34,3.342c-4.07,2.51-6.99,7.14-12.602,6.8
			c-3.55-0.25-6.51-1.82-9.028-4.33c-3.95-3.93-7.812-4.11-12.262-0.43c-8.06,6.64-10.96,6.64-19.148,0.01
			c-4.09-3.3-7.51-3.59-11.69-0.12c-8.06,6.66-11.34,6.55-19.189,0.24c-0.95-0.762-2.021-1.38-2.92-2.2
			c-1.421-1.28-5.671-0.39-4.141-3.58c1.19-2.479,4.42-1.03,6.55,0.13c1.471,0.8,2.71,2.062,3.96,3.22
			c4.15,3.842,7.96,3.67,12.271-0.108c7.16-6.28,11.29-6.33,18.54-0.08c4.67,4.02,8.32,3.608,12.8-0.32
			c6.51-5.688,11.35-5.83,17.521-0.3c4.988,4.47,9.229,4.89,13.868-0.07c0.82-0.88,1.83-1.729,2.932-2.17
			C706.53,553.62,709.63,550.97,711.12,554.52z"/>
		<path fill="#18589E" d="M711.11,492.1c1.108,2.66-2.271,2.45-3.812,3.21c-4.47,2.23-7.2,7.82-12.93,6.882
			c-4.18,0.318-6.84-1.9-9.34-4.29c-4.04-3.852-7.73-4.142-12.19-0.23c-7.438,6.51-11.25,6.51-18.55,0.23
			c-4.57-3.932-8.35-3.802-12.91,0.108c-7.14,6.13-11.07,5.852-18.62-0.31c-0.95-0.771-1.979-1.42-2.93-2.19
			c-1.46-1.2-5.58-0.318-4.11-3.63c1.42-3.188,4.32-0.729,6.36,0.11c1.52,0.63,2.79,1.96,4.05,3.108
			c4.11,3.74,7.95,3.842,12.33,0.092c7.68-6.58,10.64-6.58,18.48-0.132c4.6,3.78,8.39,3.71,12.96-0.238
			c7.09-6.142,10.858-6.16,17.988,0.05c4.62,4.02,8.5,4.148,12.852,0.07c1.24-1.16,2.56-2.382,4.068-3.102
			C706.89,490.85,709.77,488.88,711.11,492.1z"/>
		<path fill="#18589E" d="M710.92,523.28c1.92,3.568-2.99,2.479-4.6,3.79c-3.54,2.89-6.722,6.64-11.91,6.648
			c-3.66,0.04-6.562-1.778-9.01-4.229c-4.23-4.23-8.17-4.34-12.79-0.36c-7.182,6.18-11.562,6.15-18.57-0.03
			c-4.29-3.778-7.92-3.698-12.25-0.068c-7.82,6.55-10.8,6.38-19.15-0.15c-0.58-0.46-1.31-0.8-1.72-1.37
			c-1.37-1.91-6.95-0.72-4.79-4.438c1.61-2.771,5.82-0.521,7.67,1.43c6.101,6.43,11.261,5.7,17.46-0.14
			c4.852-4.57,10.58-3.222,15.051,1.33c4.819,4.908,9,4.318,13.989,0.14c6.7-5.63,10.57-5.561,17.42,0.28
			c4.78,4.068,8.92,4.648,13.3-0.21c0.642-0.722,1.422-1.392,2.262-1.842C705.77,522.75,709.2,520.07,710.92,523.28z"/>
		<path fill="#18589E" d="M673.9,470.94c-4.28,3.938-7.892,6.578-10.44,11.1c-2.29-4.59-5.53-7.35-9.8-9.771
			c3.75-3.05,7.99-4.84,9-10.318C666.45,465.65,667.89,470.3,673.9,470.94z"/>
		<path fill="#18589E" d="M673.69,586.87c-4.392,2.6-7.73,5.26-9.73,10c-3.21-3.91-5.08-8.09-12.07-9.15
			c6-3.39,9.2-5.95,11.182-10.59C666.3,580.89,668.89,584.54,673.69,586.87z"/>
	</g>
</g>
</svg>
